solid Visualization Toolkit generated SLA File
 facet normal -0 -1 0
  outer loop
   vertex 3.0095798969268799 -1.3533300489143585e-06 -52.944900512695312
   vertex 3.0099999904632568 -1.3533300489143585e-06 -52.944698333740234
   vertex -3.5651299953460693 -1.3533300489143585e-06 51.020801544189453
  endloop
 endfacet
 facet normal -1.1859850172638909e-12 -1 7.8918457403191999e-13
  outer loop
   vertex -3.2424499988555908 -1.353320044472639e-06 51.974800109863281
   vertex -3.2892301082611084 -1.353320044472639e-06 51.904499053955078
   vertex 4.5582900047302246 -1.3533300489143585e-06 51.020801544189453
  endloop
 endfacet
 facet normal -0 -1 0
  outer loop
   vertex 4.2817602157592773 -1.3533300489143585e-06 -51.904998779296875
   vertex 4.3240499496459961 -1.3533300489143585e-06 -51.835498809814453
   vertex 4.5582900047302246 -1.3533300489143585e-06 -51.020801544189453
  endloop
 endfacet
 facet normal 1.4404312056066549e-13 -1 4.3195075925788404e-12
  outer loop
   vertex 0.87911099195480347 -1.353320044472639e-06 53.459598541259766
   vertex 0.58820801973342896 -1.353320044472639e-06 53.46929931640625
   vertex 4.5582900047302246 -1.3533300489143585e-06 51.020801544189453
  endloop
 endfacet
 facet normal -1.192913748962506e-12 -1 7.2765519235829326e-13
  outer loop
   vertex -3.2892301082611084 -1.353320044472639e-06 51.904499053955078
   vertex -3.3314399719238281 -1.353320044472639e-06 51.835300445556641
   vertex 4.5582900047302246 -1.3533300489143585e-06 51.020801544189453
  endloop
 endfacet
 facet normal -1.1991461837115587e-12 -1 6.6728405228112237e-13
  outer loop
   vertex -3.3314399719238281 -1.353320044472639e-06 51.835300445556641
   vertex -3.3692800998687744 -1.353320044472639e-06 51.767299652099609
   vertex 4.5582900047302246 -1.3533300489143585e-06 51.020801544189453
  endloop
 endfacet
 facet normal -1.2046999180340112e-12 -1 6.0830517783116923e-13
  outer loop
   vertex 4.5582900047302246 -1.3533300489143585e-06 51.020801544189453
   vertex -3.3692800998687744 -1.353320044472639e-06 51.767299652099609
   vertex -3.4030098915100098 -1.353320044472639e-06 51.70050048828125
  endloop
 endfacet
 facet normal 0 -1 0
  outer loop
   vertex 4.2817602157592773 -1.3533300489143585e-06 -51.904998779296875
   vertex 4.5582900047302246 -1.3533300489143585e-06 -51.020801544189453
   vertex 4.2349600791931152 -1.3533300489143585e-06 -51.975299835205078
  endloop
 endfacet
 facet normal 3.5756280288270667e-10 -1 2.8335713373419203e-10
  outer loop
   vertex 3.0943698883056641 -1.353320044472639e-06 52.903400421142578
   vertex 4.5582900047302246 -1.3533300489143585e-06 51.020801544189453
   vertex 4.5578198432922363 -1.353320044472639e-06 51.05670166015625
  endloop
 endfacet
 facet normal -1.1593129182421163e-12 -1 9.9038523546594133e-13
  outer loop
   vertex -3.0732800960540771 -1.353320044472639e-06 52.189098358154297
   vertex -3.1345300674438477 -1.353320044472639e-06 52.117401123046875
   vertex 4.5582900047302246 -1.3533300489143585e-06 51.020801544189453
  endloop
 endfacet
 facet normal -1.1692285016640257e-12 -1 9.2082584419309522e-13
  outer loop
   vertex -3.1345300674438477 -1.353320044472639e-06 52.117401123046875
   vertex -3.1909201145172119 -1.353320044472639e-06 52.045799255371094
   vertex 4.5582900047302246 -1.3533300489143585e-06 51.020801544189453
  endloop
 endfacet
 facet normal -1.177944540781987e-12 -1 8.5493065457867375e-13
  outer loop
   vertex 4.5582900047302246 -1.3533300489143585e-06 51.020801544189453
   vertex -3.1909201145172119 -1.353320044472639e-06 52.045799255371094
   vertex -3.2424499988555908 -1.353320044472639e-06 51.974800109863281
  endloop
 endfacet
 facet normal 0 -1 0
  outer loop
   vertex -3.5651299953460693 -1.3533300489143585e-06 51.020801544189453
   vertex -3.5651299953460693 -1.3533300489143585e-06 -51.020801544189453
   vertex 3.0095798969268799 -1.3533300489143585e-06 -52.944900512695312
  endloop
 endfacet
 facet normal 0 -1 0
  outer loop
   vertex -3.5651299953460693 -1.3533300489143585e-06 -51.020801544189453
   vertex -3.563849925994873 -1.3533300489143585e-06 -51.0802001953125
   vertex 3.0095798969268799 -1.3533300489143585e-06 -52.944900512695312
  endloop
 endfacet
 facet normal 0 -1 0
  outer loop
   vertex 3.0095798969268799 -1.3533300489143585e-06 -52.944900512695312
   vertex -3.563849925994873 -1.3533300489143585e-06 -51.0802001953125
   vertex -3.559999942779541 -1.3533300489143585e-06 -51.139999389648438
  endloop
 endfacet
 facet normal 0 -1 0
  outer loop
   vertex 4.5582900047302246 -1.3533300489143585e-06 -51.020801544189453
   vertex 3.163640022277832 -1.3533300489143585e-06 -52.867900848388672
   vertex 3.3034899234771729 -1.3533300489143585e-06 -52.791099548339844
  endloop
 endfacet
 facet normal -0 -1 0
  outer loop
   vertex 4.3240499496459961 -1.3533300489143585e-06 -51.835498809814453
   vertex 4.3620400428771973 -1.3533300489143585e-06 -51.767101287841797
   vertex 4.5582900047302246 -1.3533300489143585e-06 -51.020801544189453
  endloop
 endfacet
 facet normal -0 -1 0
  outer loop
   vertex 4.3620400428771973 -1.3533300489143585e-06 -51.767101287841797
   vertex 4.395939826965332 -1.3533300489143585e-06 -51.699901580810547
   vertex 4.5582900047302246 -1.3533300489143585e-06 -51.020801544189453
  endloop
 endfacet
 facet normal 0 -1 0
  outer loop
   vertex 4.5582900047302246 -1.3533300489143585e-06 -51.020801544189453
   vertex 4.395939826965332 -1.3533300489143585e-06 -51.699901580810547
   vertex 4.4261398315429688 -1.3533300489143585e-06 -51.633499145507812
  endloop
 endfacet
 facet normal -9.5765757102899304e-13 -1 1.9271737715353749e-12
  outer loop
   vertex -2.0164699554443359 -1.353320044472639e-06 52.944900512695312
   vertex -2.1607599258422852 -1.353320044472639e-06 52.873199462890625
   vertex 4.5582900047302246 -1.3533300489143585e-06 51.020801544189453
  endloop
 endfacet
 facet normal -9.8838170631519343e-13 -1 1.8157306539538189e-12
  outer loop
   vertex -2.1607599258422852 -1.353320044472639e-06 52.873199462890625
   vertex -2.2994599342346191 -1.353320044472639e-06 52.797698974609375
   vertex 4.5582900047302246 -1.3533300489143585e-06 51.020801544189453
  endloop
 endfacet
 facet normal -1.2095367999331378e-12 -1 5.5165087860594795e-13
  outer loop
   vertex -3.4030098915100098 -1.353320044472639e-06 51.70050048828125
   vertex -3.4330201148986816 -1.353320044472639e-06 51.634700775146484
   vertex 4.5582900047302246 -1.3533300489143585e-06 51.020801544189453
  endloop
 endfacet
 facet normal -1.2138989922809136e-12 -1 4.9486691456969336e-13
  outer loop
   vertex -3.4330201148986816 -1.353320044472639e-06 51.634700775146484
   vertex -3.4595599174499512 -1.353320044472639e-06 51.569599151611328
   vertex 4.5582900047302246 -1.3533300489143585e-06 51.020801544189453
  endloop
 endfacet
 facet normal -1.2175934652414176e-12 -1 4.4089122419081415e-13
  outer loop
   vertex 4.5582900047302246 -1.3533300489143585e-06 51.020801544189453
   vertex -3.4595599174499512 -1.353320044472639e-06 51.569599151611328
   vertex -3.4827699661254883 -1.353320044472639e-06 51.505500793457031
  endloop
 endfacet
 facet normal 0 -1 0
  outer loop
   vertex -2.6675400733947754 -1.3533300489143585e-06 -52.557598114013672
   vertex -2.561959981918335 -1.3533300489143585e-06 -52.633098602294922
   vertex 0.37773200869560242 -1.3533300489143585e-06 -53.468799591064453
  endloop
 endfacet
 facet normal 0 -1 0
  outer loop
   vertex -3.0670900344848633 -1.3533300489143585e-06 -52.195999145507812
   vertex 1.8237400054931641 -1.3533300489143585e-06 -53.338199615478516
   vertex 2.0460999011993408 -1.3533300489143585e-06 -53.287498474121094
  endloop
 endfacet
 facet normal -0 -1 0
  outer loop
   vertex 3.3034899234771729 -1.3533300489143585e-06 -52.791099548339844
   vertex 3.4312400817871094 -1.3533300489143585e-06 -52.714401245117188
   vertex 4.5582900047302246 -1.3533300489143585e-06 -51.020801544189453
  endloop
 endfacet
 facet normal -0 -1 0
  outer loop
   vertex 3.4312400817871094 -1.3533300489143585e-06 -52.714401245117188
   vertex 3.5474300384521484 -1.3533300489143585e-06 -52.638301849365234
   vertex 4.5582900047302246 -1.3533300489143585e-06 -51.020801544189453
  endloop
 endfacet
 facet normal 0 -1 0
  outer loop
   vertex 4.5582900047302246 -1.3533300489143585e-06 -51.020801544189453
   vertex 3.5474300384521484 -1.3533300489143585e-06 -52.638301849365234
   vertex 3.6517300605773926 -1.3533300489143585e-06 -52.564201354980469
  endloop
 endfacet
 facet normal -0 -1 0
  outer loop
   vertex 4.0662999153137207 -1.3533300489143585e-06 -52.189201354980469
   vertex 4.1272702217102051 -1.3533300489143585e-06 -52.117801666259766
   vertex 4.5582900047302246 -1.3533300489143585e-06 -51.020801544189453
  endloop
 endfacet
 facet normal -0 -1 0
  outer loop
   vertex 4.1272702217102051 -1.3533300489143585e-06 -52.117801666259766
   vertex 4.1834897994995117 -1.3533300489143585e-06 -52.046398162841797
   vertex 4.5582900047302246 -1.3533300489143585e-06 -51.020801544189453
  endloop
 endfacet
 facet normal 0 -1 0
  outer loop
   vertex 4.5582900047302246 -1.3533300489143585e-06 -51.020801544189453
   vertex 4.1834897994995117 -1.3533300489143585e-06 -52.046398162841797
   vertex 4.2349600791931152 -1.3533300489143585e-06 -51.975299835205078
  endloop
 endfacet
 facet normal -0 -1 -0
  outer loop
   vertex 4.5578198432922363 -1.353320044472639e-06 51.05670166015625
   vertex 3.6117100715637207 -1.353320044472639e-06 52.59320068359375
   vertex 3.5003499984741211 -1.353320044472639e-06 52.6697998046875
  endloop
 endfacet
 facet normal 3.5143784767267346e-13 -1 4.63238411664682e-12
  outer loop
   vertex 0.87911099195480347 -1.353320044472639e-06 53.459598541259766
   vertex 4.5582900047302246 -1.3533300489143585e-06 51.020801544189453
   vertex 1.1638100147247314 -1.353320044472639e-06 53.437999725341797
  endloop
 endfacet
 facet normal -1.0169074151139835e-12 -1 1.7056386619092351e-12
  outer loop
   vertex -2.2994599342346191 -1.353320044472639e-06 52.797698974609375
   vertex -2.4270999431610107 -1.353320044472639e-06 52.721599578857422
   vertex 4.5582900047302246 -1.3533300489143585e-06 51.020801544189453
  endloop
 endfacet
 facet normal -1.041902378717507e-12 -1 1.6029812246679892e-12
  outer loop
   vertex -2.4270999431610107 -1.353320044472639e-06 52.721599578857422
   vertex -2.5441799163818359 -1.353320044472639e-06 52.645500183105469
   vertex 4.5582900047302246 -1.3533300489143585e-06 51.020801544189453
  endloop
 endfacet
 facet normal -1.0641636207814024e-12 -1 1.5056648372603531e-12
  outer loop
   vertex 4.5582900047302246 -1.3533300489143585e-06 51.020801544189453
   vertex -2.5441799163818359 -1.353320044472639e-06 52.645500183105469
   vertex -2.649590015411377 -1.353320044472639e-06 52.570999145507812
  endloop
 endfacet
 facet normal -1.0836186376452667e-12 -1 1.4152057711223913e-12
  outer loop
   vertex -2.649590015411377 -1.353320044472639e-06 52.570999145507812
   vertex -2.7450599670410156 -1.353320044472639e-06 52.497898101806641
   vertex 4.5582900047302246 -1.3533300489143585e-06 51.020801544189453
  endloop
 endfacet
 facet normal -1.1012120685558334e-12 -1 1.3282168857435482e-12
  outer loop
   vertex -2.7450599670410156 -1.353320044472639e-06 52.497898101806641
   vertex -2.8320200443267822 -1.353320044472639e-06 52.425800323486328
   vertex 4.5582900047302246 -1.3533300489143585e-06 51.020801544189453
  endloop
 endfacet
 facet normal -1.1170306926073444e-12 -1 1.2450107378003863e-12
  outer loop
   vertex 4.5582900047302246 -1.3533300489143585e-06 51.020801544189453
   vertex -2.8320200443267822 -1.353320044472639e-06 52.425800323486328
   vertex -2.9116001129150391 -1.353320044472639e-06 52.354400634765625
  endloop
 endfacet
 facet normal 0 -1 0
  outer loop
   vertex -3.559999942779541 -1.3533300489143585e-06 -51.139999389648438
   vertex -3.5534300804138184 -1.3533300489143585e-06 -51.201198577880859
   vertex 3.0095798969268799 -1.3533300489143585e-06 -52.944900512695312
  endloop
 endfacet
 facet normal 0 -1 0
  outer loop
   vertex -3.5534300804138184 -1.3533300489143585e-06 -51.201198577880859
   vertex -3.5440099239349365 -1.3533300489143585e-06 -51.263698577880859
   vertex 3.0095798969268799 -1.3533300489143585e-06 -52.944900512695312
  endloop
 endfacet
 facet normal 0 -1 0
  outer loop
   vertex 3.0095798969268799 -1.3533300489143585e-06 -52.944900512695312
   vertex -3.5440099239349365 -1.3533300489143585e-06 -51.263698577880859
   vertex -3.5315699577331543 -1.3533300489143585e-06 -51.327701568603516
  endloop
 endfacet
 facet normal 0 -1 0
  outer loop
   vertex 3.8819398880004883 -1.353320044472639e-06 52.375400543212891
   vertex 3.8007800579071045 -1.353320044472639e-06 52.446498870849609
   vertex 4.5578198432922363 -1.353320044472639e-06 51.05670166015625
  endloop
 endfacet
 facet normal 0 -1 0
  outer loop
   vertex 3.8007800579071045 -1.353320044472639e-06 52.446498870849609
   vertex 3.7112700939178467 -1.353320044472639e-06 52.518901824951172
   vertex 4.5578198432922363 -1.353320044472639e-06 51.05670166015625
  endloop
 endfacet
 facet normal -0 -1 -0
  outer loop
   vertex 4.5578198432922363 -1.353320044472639e-06 51.05670166015625
   vertex 3.7112700939178467 -1.353320044472639e-06 52.518901824951172
   vertex 3.6117100715637207 -1.353320044472639e-06 52.59320068359375
  endloop
 endfacet
 facet normal -6.4744622000589309e-13 -1 2.8146613623223117e-12
  outer loop
   vertex -0.83806800842285156 -1.353320044472639e-06 53.333900451660156
   vertex -1.0663100481033325 -1.353320044472639e-06 53.281398773193359
   vertex 4.5582900047302246 -1.3533300489143585e-06 51.020801544189453
  endloop
 endfacet
 facet normal -7.1730384359264169e-13 -1 2.6408483591585472e-12
  outer loop
   vertex -1.0663100481033325 -1.353320044472639e-06 53.281398773193359
   vertex -1.2805700302124023 -1.353320044472639e-06 53.223201751708984
   vertex 4.5582900047302246 -1.3533300489143585e-06 51.020801544189453
  endloop
 endfacet
 facet normal -7.7948070951330489e-13 -1 2.4760091004794787e-12
  outer loop
   vertex 4.5582900047302246 -1.3533300489143585e-06 51.020801544189453
   vertex -1.2805700302124023 -1.353320044472639e-06 53.223201751708984
   vertex -1.4819600582122803 -1.353320044472639e-06 53.159801483154297
  endloop
 endfacet
 facet normal -1.1313950927978337e-12 -1 1.1645514065162905e-12
  outer loop
   vertex -2.9116001129150391 -1.353320044472639e-06 52.354400634765625
   vertex -2.9846799373626709 -1.353320044472639e-06 52.283401489257812
   vertex 4.5582900047302246 -1.3533300489143585e-06 51.020801544189453
  endloop
 endfacet
 facet normal -1.1442159930853651e-12 -1 1.0879573389518545e-12
  outer loop
   vertex -2.9846799373626709 -1.353320044472639e-06 52.283401489257812
   vertex -3.0529499053955078 -1.353320044472639e-06 52.211601257324219
   vertex 4.5582900047302246 -1.3533300489143585e-06 51.020801544189453
  endloop
 endfacet
 facet normal -1.1516480691011912e-12 -1 1.0404537050806035e-12
  outer loop
   vertex 4.5582900047302246 -1.3533300489143585e-06 51.020801544189453
   vertex -3.0529499053955078 -1.353320044472639e-06 52.211601257324219
   vertex -3.0732800960540771 -1.353320044472639e-06 52.189098358154297
  endloop
 endfacet
 facet normal -0 -1 0
  outer loop
   vertex 0.53694999217987061 -1.3533300489143585e-06 -53.469699859619141
   vertex 0.81726497411727905 -1.3533300489143585e-06 -53.462600708007812
   vertex -3.0670900344848633 -1.3533300489143585e-06 -52.195999145507812
  endloop
 endfacet
 facet normal -0 -1 0
  outer loop
   vertex 0.81726497411727905 -1.3533300489143585e-06 -53.462600708007812
   vertex 1.0858000516891479 -1.3533300489143585e-06 -53.445098876953125
   vertex -3.0670900344848633 -1.3533300489143585e-06 -52.195999145507812
  endloop
 endfacet
 facet normal -0 -1 0
  outer loop
   vertex 3.6517300605773926 -1.3533300489143585e-06 -52.564201354980469
   vertex 3.7460401058197021 -1.3533300489143585e-06 -52.491600036621094
   vertex 4.5582900047302246 -1.3533300489143585e-06 -51.020801544189453
  endloop
 endfacet
 facet normal -0 -1 0
  outer loop
   vertex 3.7460401058197021 -1.3533300489143585e-06 -52.491600036621094
   vertex 3.8318901062011719 -1.3533300489143585e-06 -52.419998168945312
   vertex 4.5582900047302246 -1.3533300489143585e-06 -51.020801544189453
  endloop
 endfacet
 facet normal 0 -1 0
  outer loop
   vertex 4.5582900047302246 -1.3533300489143585e-06 -51.020801544189453
   vertex 3.8318901062011719 -1.3533300489143585e-06 -52.419998168945312
   vertex 3.9104499816894531 -1.3533300489143585e-06 -52.349098205566406
  endloop
 endfacet
 facet normal -0 -1 0
  outer loop
   vertex 4.4261398315429688 -1.3533300489143585e-06 -51.633499145507812
   vertex 4.4528298377990723 -1.3533300489143585e-06 -51.567901611328125
   vertex 4.5582900047302246 -1.3533300489143585e-06 -51.020801544189453
  endloop
 endfacet
 facet normal -0 -1 0
  outer loop
   vertex 4.4528298377990723 -1.3533300489143585e-06 -51.567901611328125
   vertex 4.4761500358581543 -1.3533300489143585e-06 -51.503299713134766
   vertex 4.5582900047302246 -1.3533300489143585e-06 -51.020801544189453
  endloop
 endfacet
 facet normal 0 -1 0
  outer loop
   vertex 4.5582900047302246 -1.3533300489143585e-06 -51.020801544189453
   vertex 4.4761500358581543 -1.3533300489143585e-06 -51.503299713134766
   vertex 4.4962501525878906 -1.3533300489143585e-06 -51.439701080322266
  endloop
 endfacet
 facet normal 0 -1 0
  outer loop
   vertex 3.5003499984741211 -1.353320044472639e-06 52.6697998046875
   vertex 3.3778500556945801 -1.353320044472639e-06 52.747100830078125
   vertex 4.5578198432922363 -1.353320044472639e-06 51.05670166015625
  endloop
 endfacet
 facet normal 0 -1 0
  outer loop
   vertex 3.3778500556945801 -1.353320044472639e-06 52.747100830078125
   vertex 3.2431399822235107 -1.353320044472639e-06 52.825000762939453
   vertex 4.5578198432922363 -1.353320044472639e-06 51.05670166015625
  endloop
 endfacet
 facet normal -0 -1 -0
  outer loop
   vertex 4.5578198432922363 -1.353320044472639e-06 51.05670166015625
   vertex 3.2431399822235107 -1.353320044472639e-06 52.825000762939453
   vertex 3.0943698883056641 -1.353320044472639e-06 52.903400421142578
  endloop
 endfacet
 facet normal 4.1513833225406906e-12 -1 8.5423057844304545e-12
  outer loop
   vertex 3.0943698883056641 -1.353320044472639e-06 52.903400421142578
   vertex 2.9820199012756348 -1.353320044472639e-06 52.958000183105469
   vertex 4.5582900047302246 -1.3533300489143585e-06 51.020801544189453
  endloop
 endfacet
 facet normal 3.5740094379031226e-12 -1 8.0725051276537734e-12
  outer loop
   vertex 2.9820199012756348 -1.353320044472639e-06 52.958000183105469
   vertex 2.7945499420166016 -1.353320044472639e-06 53.041000366210938
   vertex 4.5582900047302246 -1.3533300489143585e-06 51.020801544189453
  endloop
 endfacet
 facet normal 2.9595059757542044e-12 -1 7.5360112127708029e-12
  outer loop
   vertex 4.5582900047302246 -1.3533300489143585e-06 51.020801544189453
   vertex 2.7945499420166016 -1.353320044472639e-06 53.041000366210938
   vertex 2.5964400768280029 -1.353320044472639e-06 53.118801116943359
  endloop
 endfacet
 facet normal 1.3351326700203995e-14 -1 4.1075992370639506e-12
  outer loop
   vertex 0.58820801973342896 -1.353320044472639e-06 53.46929931640625
   vertex 0.46497899293899536 -1.353320044472639e-06 53.469699859619141
   vertex 4.5582900047302246 -1.3533300489143585e-06 51.020801544189453
  endloop
 endfacet
 facet normal -9.9226971106966188e-14 -1 3.9194256476587298e-12
  outer loop
   vertex 0.46497899293899536 -1.353320044472639e-06 53.469699859619141
   vertex 0.18848299980163574 -1.353320044472639e-06 53.462699890136719
   vertex 4.5582900047302246 -1.3533300489143585e-06 51.020801544189453
  endloop
 endfacet
 facet normal -2.4063313858213839e-13 -1 3.6663775786436343e-12
  outer loop
   vertex 4.5582900047302246 -1.3533300489143585e-06 51.020801544189453
   vertex 0.18848299980163574 -1.353320044472639e-06 53.462699890136719
   vertex -0.079692699015140533 -1.353320044472639e-06 53.445098876953125
  endloop
 endfacet
 facet normal -8.3276288150544949e-13 -1 2.3255473651299133e-12
  outer loop
   vertex -1.4819600582122803 -1.353320044472639e-06 53.159801483154297
   vertex -1.6715799570083618 -1.353320044472639e-06 53.091899871826172
   vertex 4.5582900047302246 -1.3533300489143585e-06 51.020801544189453
  endloop
 endfacet
 facet normal -8.8095612120169972e-13 -1 2.1805819560345704e-12
  outer loop
   vertex -1.6715799570083618 -1.353320044472639e-06 53.091899871826172
   vertex -1.8505400419235229 -1.353320044472639e-06 53.019599914550781
   vertex 4.5582900047302246 -1.3533300489143585e-06 51.020801544189453
  endloop
 endfacet
 facet normal -9.2217337821485161e-13 -1 2.0484253567980071e-12
  outer loop
   vertex 4.5582900047302246 -1.3533300489143585e-06 51.020801544189453
   vertex -1.8505400419235229 -1.353320044472639e-06 53.019599914550781
   vertex -2.0164699554443359 -1.353320044472639e-06 52.944900512695312
  endloop
 endfacet
 facet normal -1.2208357658365314e-12 -1 3.8710213009122937e-13
  outer loop
   vertex -3.4827699661254883 -1.353320044472639e-06 51.505500793457031
   vertex -3.502810001373291 -1.353320044472639e-06 51.442298889160156
   vertex 4.5582900047302246 -1.3533300489143585e-06 51.020801544189453
  endloop
 endfacet
 facet normal -1.2236447794664378e-12 -1 3.3337998911129571e-13
  outer loop
   vertex -3.502810001373291 -1.353320044472639e-06 51.442298889160156
   vertex -3.5198099613189697 -1.353320044472639e-06 51.379901885986328
   vertex 4.5582900047302246 -1.3533300489143585e-06 51.020801544189453
  endloop
 endfacet
 facet normal -1.2259210884630964e-12 -1 2.8217354487174463e-13
  outer loop
   vertex 4.5582900047302246 -1.3533300489143585e-06 51.020801544189453
   vertex -3.5198099613189697 -1.353320044472639e-06 51.379901885986328
   vertex -3.5339200496673584 -1.353320044472639e-06 51.318599700927734
  endloop
 endfacet
 facet normal 0 -1 0
  outer loop
   vertex -2.9241800308227539 -1.3533300489143585e-06 -52.342700958251953
   vertex -2.8468201160430908 -1.3533300489143585e-06 -52.412998199462891
   vertex 0.37773200869560242 -1.3533300489143585e-06 -53.468799591064453
  endloop
 endfacet
 facet normal 0 -1 0
  outer loop
   vertex -2.8468201160430908 -1.3533300489143585e-06 -52.412998199462891
   vertex -2.7617700099945068 -1.3533300489143585e-06 -52.484500885009766
   vertex 0.37773200869560242 -1.3533300489143585e-06 -53.468799591064453
  endloop
 endfacet
 facet normal 0 -1 0
  outer loop
   vertex 0.37773200869560242 -1.3533300489143585e-06 -53.468799591064453
   vertex -2.7617700099945068 -1.3533300489143585e-06 -52.484500885009766
   vertex -2.6675400733947754 -1.3533300489143585e-06 -52.557598114013672
  endloop
 endfacet
 facet normal 0 -1 0
  outer loop
   vertex -2.561959981918335 -1.3533300489143585e-06 -52.633098602294922
   vertex -2.4447801113128662 -1.3533300489143585e-06 -52.710098266601562
   vertex 0.37773200869560242 -1.3533300489143585e-06 -53.468799591064453
  endloop
 endfacet
 facet normal 0 -1 0
  outer loop
   vertex -2.4447801113128662 -1.3533300489143585e-06 -52.710098266601562
   vertex -2.3160500526428223 -1.3533300489143585e-06 -52.787700653076172
   vertex 0.37773200869560242 -1.3533300489143585e-06 -53.468799591064453
  endloop
 endfacet
 facet normal 0 -1 0
  outer loop
   vertex 0.37773200869560242 -1.3533300489143585e-06 -53.468799591064453
   vertex -2.3160500526428223 -1.3533300489143585e-06 -52.787700653076172
   vertex -2.1742300987243652 -1.3533300489143585e-06 -52.865898132324219
  endloop
 endfacet
 facet normal -0 -1 0
  outer loop
   vertex 1.0858000516891479 -1.3533300489143585e-06 -53.445098876953125
   vertex 1.343000054359436 -1.3533300489143585e-06 -53.417999267578125
   vertex -3.0670900344848633 -1.3533300489143585e-06 -52.195999145507812
  endloop
 endfacet
 facet normal -0 -1 0
  outer loop
   vertex 1.343000054359436 -1.3533300489143585e-06 -53.417999267578125
   vertex 1.5893599987030029 -1.3533300489143585e-06 -53.381999969482422
   vertex -3.0670900344848633 -1.3533300489143585e-06 -52.195999145507812
  endloop
 endfacet
 facet normal 0 -1 0
  outer loop
   vertex -3.0670900344848633 -1.3533300489143585e-06 -52.195999145507812
   vertex 1.5893599987030029 -1.3533300489143585e-06 -53.381999969482422
   vertex 1.8237400054931641 -1.3533300489143585e-06 -53.338199615478516
  endloop
 endfacet
 facet normal -0 -1 0
  outer loop
   vertex 2.0460999011993408 -1.3533300489143585e-06 -53.287498474121094
   vertex 2.2573199272155762 -1.3533300489143585e-06 -53.230400085449219
   vertex -3.0670900344848633 -1.3533300489143585e-06 -52.195999145507812
  endloop
 endfacet
 facet normal -0 -1 0
  outer loop
   vertex 2.2573199272155762 -1.3533300489143585e-06 -53.230400085449219
   vertex 2.4582700729370117 -1.3533300489143585e-06 -53.167301177978516
   vertex -3.0670900344848633 -1.3533300489143585e-06 -52.195999145507812
  endloop
 endfacet
 facet normal 0 -1 0
  outer loop
   vertex -3.0670900344848633 -1.3533300489143585e-06 -52.195999145507812
   vertex 2.4582700729370117 -1.3533300489143585e-06 -53.167301177978516
   vertex 2.6497399806976318 -1.3533300489143585e-06 -53.098800659179688
  endloop
 endfacet
 facet normal -0 -1 0
  outer loop
   vertex 3.9104499816894531 -1.3533300489143585e-06 -52.349098205566406
   vertex 3.9826500415802002 -1.3533300489143585e-06 -52.278598785400391
   vertex 4.5582900047302246 -1.3533300489143585e-06 -51.020801544189453
  endloop
 endfacet
 facet normal -0 -1 0
  outer loop
   vertex 3.9826500415802002 -1.3533300489143585e-06 -52.278598785400391
   vertex 4.0502099990844727 -1.3533300489143585e-06 -52.207099914550781
   vertex 4.5582900047302246 -1.3533300489143585e-06 -51.020801544189453
  endloop
 endfacet
 facet normal 0 -1 0
  outer loop
   vertex 4.5582900047302246 -1.3533300489143585e-06 -51.020801544189453
   vertex 4.0502099990844727 -1.3533300489143585e-06 -52.207099914550781
   vertex 4.0662999153137207 -1.3533300489143585e-06 -52.189201354980469
  endloop
 endfacet
 facet normal 2.4106023144744845e-12 -1 7.0227286447989932e-12
  outer loop
   vertex 2.5964400768280029 -1.353320044472639e-06 53.118801116943359
   vertex 2.3863999843597412 -1.353320044472639e-06 53.190898895263672
   vertex 4.5582900047302246 -1.3533300489143585e-06 51.020801544189453
  endloop
 endfacet
 facet normal 1.9398840791682297e-12 -1 6.5516215595974988e-12
  outer loop
   vertex 2.3863999843597412 -1.353320044472639e-06 53.190898895263672
   vertex 2.1634900569915771 -1.353320044472639e-06 53.256900787353516
   vertex 4.5582900047302246 -1.3533300489143585e-06 51.020801544189453
  endloop
 endfacet
 facet normal 1.5353201231278516e-12 -1 6.1183448417844187e-12
  outer loop
   vertex 4.5582900047302246 -1.3533300489143585e-06 51.020801544189453
   vertex 2.1634900569915771 -1.353320044472639e-06 53.256900787353516
   vertex 1.9502999782562256 -1.353320044472639e-06 53.310398101806641
  endloop
 endfacet
 facet normal 1.1909831213804841e-12 -1 5.726124009989631e-12
  outer loop
   vertex 1.9502999782562256 -1.353320044472639e-06 53.310398101806641
   vertex 1.7002799510955811 -1.353320044472639e-06 53.362400054931641
   vertex 4.5582900047302246 -1.3533300489143585e-06 51.020801544189453
  endloop
 endfacet
 facet normal 8.7281417126548873e-13 -1 5.3377867036531928e-12
  outer loop
   vertex 1.7002799510955811 -1.353320044472639e-06 53.362400054931641
   vertex 1.4379199743270874 -1.353320044472639e-06 53.405300140380859
   vertex 4.5582900047302246 -1.3533300489143585e-06 51.020801544189453
  endloop
 endfacet
 facet normal 5.9309816650769624e-13 -1 4.9717485605968675e-12
  outer loop
   vertex 4.5582900047302246 -1.3533300489143585e-06 51.020801544189453
   vertex 1.4379199743270874 -1.353320044472639e-06 53.405300140380859
   vertex 1.1638100147247314 -1.353320044472639e-06 53.437999725341797
  endloop
 endfacet
 facet normal -3.651112021788386e-13 -1 3.4282355412974705e-12
  outer loop
   vertex -0.079692699015140533 -1.353320044472639e-06 53.445098876953125
   vertex -0.34070101380348206 -1.353320044472639e-06 53.417301177978516
   vertex 4.5582900047302246 -1.3533300489143585e-06 51.020801544189453
  endloop
 endfacet
 facet normal -4.7340559772962841e-13 -1 3.2068571343573283e-12
  outer loop
   vertex -0.34070101380348206 -1.353320044472639e-06 53.417301177978516
   vertex -0.59541398286819458 -1.353320044472639e-06 53.37969970703125
   vertex 4.5582900047302246 -1.3533300489143585e-06 51.020801544189453
  endloop
 endfacet
 facet normal -5.6677124989335321e-13 -1 3.0028725192346339e-12
  outer loop
   vertex 4.5582900047302246 -1.3533300489143585e-06 51.020801544189453
   vertex -0.59541398286819458 -1.353320044472639e-06 53.37969970703125
   vertex -0.83806800842285156 -1.353320044472639e-06 53.333900451660156
  endloop
 endfacet
 facet normal 0 -1 0
  outer loop
   vertex -3.5315699577331543 -1.3533300489143585e-06 -51.327701568603516
   vertex -3.5159299373626709 -1.3533300489143585e-06 -51.393001556396484
   vertex 3.0095798969268799 -1.3533300489143585e-06 -52.944900512695312
  endloop
 endfacet
 facet normal 0 -1 0
  outer loop
   vertex -3.5159299373626709 -1.3533300489143585e-06 -51.393001556396484
   vertex -3.496920108795166 -1.3533300489143585e-06 -51.459701538085938
   vertex 3.0095798969268799 -1.3533300489143585e-06 -52.944900512695312
  endloop
 endfacet
 facet normal 0 -1 0
  outer loop
   vertex 3.0095798969268799 -1.3533300489143585e-06 -52.944900512695312
   vertex -3.496920108795166 -1.3533300489143585e-06 -51.459701538085938
   vertex -3.474370002746582 -1.3533300489143585e-06 -51.527698516845703
  endloop
 endfacet
 facet normal -0 -1 0
  outer loop
   vertex 2.6497399806976318 -1.3533300489143585e-06 -53.098800659179688
   vertex 2.8324599266052246 -1.3533300489143585e-06 -53.024898529052734
   vertex -3.0670900344848633 -1.3533300489143585e-06 -52.195999145507812
  endloop
 endfacet
 facet normal -0 -1 0
  outer loop
   vertex 2.8324599266052246 -1.3533300489143585e-06 -53.024898529052734
   vertex 3.0095798969268799 -1.3533300489143585e-06 -52.944900512695312
   vertex -3.0670900344848633 -1.3533300489143585e-06 -52.195999145507812
  endloop
 endfacet
 facet normal 0 -1 0
  outer loop
   vertex -3.0670900344848633 -1.3533300489143585e-06 -52.195999145507812
   vertex 3.0095798969268799 -1.3533300489143585e-06 -52.944900512695312
   vertex -3.0709900856018066 -1.3533300489143585e-06 -52.191600799560547
  endloop
 endfacet
 facet normal 0 -1 0
  outer loop
   vertex 4.0907001495361328 -1.353320044472639e-06 52.161300659179688
   vertex 4.0239901542663574 -1.353320044472639e-06 52.235500335693359
   vertex 4.5578198432922363 -1.353320044472639e-06 51.05670166015625
  endloop
 endfacet
 facet normal 0 -1 0
  outer loop
   vertex 4.0239901542663574 -1.353320044472639e-06 52.235500335693359
   vertex 3.9560201168060303 -1.353320044472639e-06 52.305198669433594
   vertex 4.5578198432922363 -1.353320044472639e-06 51.05670166015625
  endloop
 endfacet
 facet normal -0 -1 -0
  outer loop
   vertex 4.5578198432922363 -1.353320044472639e-06 51.05670166015625
   vertex 3.9560201168060303 -1.353320044472639e-06 52.305198669433594
   vertex 3.8819398880004883 -1.353320044472639e-06 52.375400543212891
  endloop
 endfacet
 facet normal 0 -1 0
  outer loop
   vertex -3.2496500015258789 -1.3533300489143585e-06 -51.963798522949219
   vertex -3.194890022277832 -1.3533300489143585e-06 -52.040199279785156
   vertex 3.0095798969268799 -1.3533300489143585e-06 -52.944900512695312
  endloop
 endfacet
 facet normal 0 -1 0
  outer loop
   vertex -3.194890022277832 -1.3533300489143585e-06 -52.040199279785156
   vertex -3.13496994972229 -1.3533300489143585e-06 -52.11669921875
   vertex 3.0095798969268799 -1.3533300489143585e-06 -52.944900512695312
  endloop
 endfacet
 facet normal 0 -1 0
  outer loop
   vertex 3.0095798969268799 -1.3533300489143585e-06 -52.944900512695312
   vertex -3.13496994972229 -1.3533300489143585e-06 -52.11669921875
   vertex -3.0709900856018066 -1.3533300489143585e-06 -52.191600799560547
  endloop
 endfacet
 facet normal 0 -1 0
  outer loop
   vertex 0.53694999217987061 -1.3533300489143585e-06 -53.469699859619141
   vertex -3.0670900344848633 -1.3533300489143585e-06 -52.195999145507812
   vertex 0.37773200869560242 -1.3533300489143585e-06 -53.468799591064453
  endloop
 endfacet
 facet normal 0 -1 0
  outer loop
   vertex -3.0670900344848633 -1.3533300489143585e-06 -52.195999145507812
   vertex -2.9950199127197266 -1.3533300489143585e-06 -52.272998809814453
   vertex 0.37773200869560242 -1.3533300489143585e-06 -53.468799591064453
  endloop
 endfacet
 facet normal 0 -1 0
  outer loop
   vertex 0.37773200869560242 -1.3533300489143585e-06 -53.468799591064453
   vertex -2.9950199127197266 -1.3533300489143585e-06 -52.272998809814453
   vertex -2.9241800308227539 -1.3533300489143585e-06 -52.342700958251953
  endloop
 endfacet
 facet normal -0 -1 0
  outer loop
   vertex 4.4962501525878906 -1.3533300489143585e-06 -51.439701080322266
   vertex 4.5132598876953125 -1.3533300489143585e-06 -51.377201080322266
   vertex 4.5582900047302246 -1.3533300489143585e-06 -51.020801544189453
  endloop
 endfacet
 facet normal -0 -1 0
  outer loop
   vertex 4.5132598876953125 -1.3533300489143585e-06 -51.377201080322266
   vertex 4.5273499488830566 -1.3533300489143585e-06 -51.315799713134766
   vertex 4.5582900047302246 -1.3533300489143585e-06 -51.020801544189453
  endloop
 endfacet
 facet normal 0 -1 0
  outer loop
   vertex 4.5582900047302246 -1.3533300489143585e-06 -51.020801544189453
   vertex 4.5273499488830566 -1.3533300489143585e-06 -51.315799713134766
   vertex 4.538640022277832 -1.3533300489143585e-06 -51.255500793457031
  endloop
 endfacet
 facet normal -1.2278360641207484e-12 -1 2.3013700629640275e-13
  outer loop
   vertex -3.5339200496673584 -1.353320044472639e-06 51.318599700927734
   vertex -3.545259952545166 -1.353320044472639e-06 51.258098602294922
   vertex 4.5582900047302246 -1.3533300489143585e-06 51.020801544189453
  endloop
 endfacet
 facet normal -1.2293200602076518e-12 -1 1.7945944407699154e-13
  outer loop
   vertex -3.545259952545166 -1.353320044472639e-06 51.258098602294922
   vertex -3.5539600849151611 -1.353320044472639e-06 51.198501586914062
   vertex 4.5582900047302246 -1.3533300489143585e-06 51.020801544189453
  endloop
 endfacet
 facet normal -1.2304275082154343e-12 -1 1.2890292724861397e-13
  outer loop
   vertex 4.5582900047302246 -1.3533300489143585e-06 51.020801544189453
   vertex -3.5539600849151611 -1.353320044472639e-06 51.198501586914062
   vertex -3.5601201057434082 -1.353320044472639e-06 51.139701843261719
  endloop
 endfacet
 facet normal -1.2311671929327822e-12 -1 7.8397891224849459e-14
  outer loop
   vertex -3.5601201057434082 -1.353320044472639e-06 51.139701843261719
   vertex -3.5638198852539062 -1.353320044472639e-06 51.081600189208984
   vertex 4.5582900047302246 -1.3533300489143585e-06 51.020801544189453
  endloop
 endfacet
 facet normal 0 -1 1.645504059554014e-10
  outer loop
   vertex -3.5638198852539062 -1.353320044472639e-06 51.081600189208984
   vertex -3.5651299953460693 -1.3533300489143585e-06 51.020801544189453
   vertex 4.5582900047302246 -1.3533300489143585e-06 51.020801544189453
  endloop
 endfacet
 facet normal 0 -1 0
  outer loop
   vertex 4.5582900047302246 -1.3533300489143585e-06 51.020801544189453
   vertex -3.5651299953460693 -1.3533300489143585e-06 51.020801544189453
   vertex 4.5582900047302246 -1.3533300489143585e-06 -51.020801544189453
  endloop
 endfacet
 facet normal 0 -1 0
  outer loop
   vertex -3.5651299953460693 -1.3533300489143585e-06 51.020801544189453
   vertex 3.0099999904632568 -1.3533300489143585e-06 -52.944698333740234
   vertex 4.5582900047302246 -1.3533300489143585e-06 -51.020801544189453
  endloop
 endfacet
 facet normal 0 -1 0
  outer loop
   vertex 4.5582900047302246 -1.3533300489143585e-06 -51.020801544189453
   vertex 3.0099999904632568 -1.3533300489143585e-06 -52.944698333740234
   vertex 3.163640022277832 -1.3533300489143585e-06 -52.867900848388672
  endloop
 endfacet
 facet normal -0 -1 0
  outer loop
   vertex 4.538640022277832 -1.3533300489143585e-06 -51.255500793457031
   vertex 4.5472698211669922 -1.3533300489143585e-06 -51.196201324462891
   vertex 4.5582900047302246 -1.3533300489143585e-06 -51.020801544189453
  endloop
 endfacet
 facet normal -0 -1 0
  outer loop
   vertex 4.5472698211669922 -1.3533300489143585e-06 -51.196201324462891
   vertex 4.5533499717712402 -1.3533300489143585e-06 -51.137901306152344
   vertex 4.5582900047302246 -1.3533300489143585e-06 -51.020801544189453
  endloop
 endfacet
 facet normal 0 -1 0
  outer loop
   vertex 4.5582900047302246 -1.3533300489143585e-06 -51.020801544189453
   vertex 4.5533499717712402 -1.3533300489143585e-06 -51.137901306152344
   vertex 4.5569901466369629 -1.3533300489143585e-06 -51.080699920654297
  endloop
 endfacet
 facet normal 0 -1 0
  outer loop
   vertex -0.48038199543952942 -1.3533300489143585e-06 -53.400199890136719
   vertex -1.6502900123596191 -1.3533300489143585e-06 -53.101200103759766
   vertex -0.74009299278259277 -1.3533300489143585e-06 -53.356300354003906
  endloop
 endfacet
 facet normal 0 -1 0
  outer loop
   vertex -1.6502900123596191 -1.3533300489143585e-06 -53.101200103759766
   vertex -1.4424099922180176 -1.3533300489143585e-06 -53.174900054931641
   vertex -0.74009299278259277 -1.3533300489143585e-06 -53.356300354003906
  endloop
 endfacet
 facet normal 0 -1 0
  outer loop
   vertex -0.74009299278259277 -1.3533300489143585e-06 -53.356300354003906
   vertex -1.4424099922180176 -1.3533300489143585e-06 -53.174900054931641
   vertex -0.98729699850082397 -1.3533300489143585e-06 -53.303501129150391
  endloop
 endfacet
 facet normal 0 -1 0
  outer loop
   vertex -1.4424099922180176 -1.3533300489143585e-06 -53.174900054931641
   vertex -1.2217700481414795 -1.3533300489143585e-06 -53.242599487304688
   vertex -0.98729699850082397 -1.3533300489143585e-06 -53.303501129150391
  endloop
 endfacet
 facet normal 0 -1 0
  outer loop
   vertex -2.1742300987243652 -1.3533300489143585e-06 -52.865898132324219
   vertex -2.0172500610351562 -1.3533300489143585e-06 -52.944499969482422
   vertex 0.37773200869560242 -1.3533300489143585e-06 -53.468799591064453
  endloop
 endfacet
 facet normal 0 -1 0
  outer loop
   vertex -2.0172500610351562 -1.3533300489143585e-06 -52.944499969482422
   vertex -1.8465100526809692 -1.3533300489143585e-06 -53.021900177001953
   vertex 0.37773200869560242 -1.3533300489143585e-06 -53.468799591064453
  endloop
 endfacet
 facet normal 0 -1 0
  outer loop
   vertex 0.37773200869560242 -1.3533300489143585e-06 -53.468799591064453
   vertex -1.8465100526809692 -1.3533300489143585e-06 -53.021900177001953
   vertex 0.079887300729751587 -1.3533300489143585e-06 -53.457599639892578
  endloop
 endfacet
 facet normal 0 -1 0
  outer loop
   vertex -1.8465100526809692 -1.3533300489143585e-06 -53.021900177001953
   vertex -1.6502900123596191 -1.3533300489143585e-06 -53.101200103759766
   vertex 0.079887300729751587 -1.3533300489143585e-06 -53.457599639892578
  endloop
 endfacet
 facet normal 0 -1 0
  outer loop
   vertex 0.079887300729751587 -1.3533300489143585e-06 -53.457599639892578
   vertex -1.6502900123596191 -1.3533300489143585e-06 -53.101200103759766
   vertex -0.20729400217533112 -1.3533300489143585e-06 -53.434299468994141
  endloop
 endfacet
 facet normal 0 -1 0
  outer loop
   vertex -1.6502900123596191 -1.3533300489143585e-06 -53.101200103759766
   vertex -0.48038199543952942 -1.3533300489143585e-06 -53.400199890136719
   vertex -0.20729400217533112 -1.3533300489143585e-06 -53.434299468994141
  endloop
 endfacet
 facet normal -0 -1 -0
  outer loop
   vertex 4.5578198432922363 -1.353320044472639e-06 51.05670166015625
   vertex 4.5550098419189453 -1.353320044472639e-06 51.116199493408203
   vertex 4.0907001495361328 -1.353320044472639e-06 52.161300659179688
  endloop
 endfacet
 facet normal -0 -1 -0
  outer loop
   vertex 4.5550098419189453 -1.353320044472639e-06 51.116199493408203
   vertex 4.5495500564575195 -1.353320044472639e-06 51.176898956298828
   vertex 4.0907001495361328 -1.353320044472639e-06 52.161300659179688
  endloop
 endfacet
 facet normal 0 -1 0
  outer loop
   vertex 4.0907001495361328 -1.353320044472639e-06 52.161300659179688
   vertex 4.5495500564575195 -1.353320044472639e-06 51.176898956298828
   vertex 4.5412998199462891 -1.353320044472639e-06 51.238998413085938
  endloop
 endfacet
 facet normal 0 -1 0
  outer loop
   vertex -3.474370002746582 -1.3533300489143585e-06 -51.527698516845703
   vertex -3.4481101036071777 -1.3533300489143585e-06 -51.5968017578125
   vertex 3.0095798969268799 -1.3533300489143585e-06 -52.944900512695312
  endloop
 endfacet
 facet normal 0 -1 0
  outer loop
   vertex -3.4481101036071777 -1.3533300489143585e-06 -51.5968017578125
   vertex -3.4177799224853516 -1.3533300489143585e-06 -51.667400360107422
   vertex 3.0095798969268799 -1.3533300489143585e-06 -52.944900512695312
  endloop
 endfacet
 facet normal 0 -1 0
  outer loop
   vertex 3.0095798969268799 -1.3533300489143585e-06 -52.944900512695312
   vertex -3.4177799224853516 -1.3533300489143585e-06 -51.667400360107422
   vertex -3.3830299377441406 -1.3533300489143585e-06 -51.739498138427734
  endloop
 endfacet
 facet normal 0 -1 0
  outer loop
   vertex -3.3830299377441406 -1.3533300489143585e-06 -51.739498138427734
   vertex -3.3435800075531006 -1.3533300489143585e-06 -51.813098907470703
   vertex 3.0095798969268799 -1.3533300489143585e-06 -52.944900512695312
  endloop
 endfacet
 facet normal 0 -1 0
  outer loop
   vertex -3.3435800075531006 -1.3533300489143585e-06 -51.813098907470703
   vertex -3.2991800308227539 -1.3533300489143585e-06 -51.887901306152344
   vertex 3.0095798969268799 -1.3533300489143585e-06 -52.944900512695312
  endloop
 endfacet
 facet normal 0 -1 0
  outer loop
   vertex 3.0095798969268799 -1.3533300489143585e-06 -52.944900512695312
   vertex -3.2991800308227539 -1.3533300489143585e-06 -51.887901306152344
   vertex -3.2496500015258789 -1.3533300489143585e-06 -51.963798522949219
  endloop
 endfacet
 facet normal -0 -1 -0
  outer loop
   vertex 4.5412998199462891 -1.353320044472639e-06 51.238998413085938
   vertex 4.5300998687744141 -1.353320044472639e-06 51.302398681640625
   vertex 4.0907001495361328 -1.353320044472639e-06 52.161300659179688
  endloop
 endfacet
 facet normal -0 -1 -0
  outer loop
   vertex 4.5300998687744141 -1.353320044472639e-06 51.302398681640625
   vertex 4.5157899856567383 -1.353320044472639e-06 51.367099761962891
   vertex 4.0907001495361328 -1.353320044472639e-06 52.161300659179688
  endloop
 endfacet
 facet normal 0 -1 0
  outer loop
   vertex 4.0907001495361328 -1.353320044472639e-06 52.161300659179688
   vertex 4.5157899856567383 -1.353320044472639e-06 51.367099761962891
   vertex 4.4981999397277832 -1.353320044472639e-06 51.433200836181641
  endloop
 endfacet
 facet normal -0 -1 -0
  outer loop
   vertex 4.4981999397277832 -1.353320044472639e-06 51.433200836181641
   vertex 4.477139949798584 -1.353320044472639e-06 51.500499725341797
   vertex 4.0907001495361328 -1.353320044472639e-06 52.161300659179688
  endloop
 endfacet
 facet normal -0 -1 -0
  outer loop
   vertex 4.477139949798584 -1.353320044472639e-06 51.500499725341797
   vertex 4.4524497985839844 -1.353320044472639e-06 51.569099426269531
   vertex 4.0907001495361328 -1.353320044472639e-06 52.161300659179688
  endloop
 endfacet
 facet normal 0 -1 0
  outer loop
   vertex 4.0907001495361328 -1.353320044472639e-06 52.161300659179688
   vertex 4.4524497985839844 -1.353320044472639e-06 51.569099426269531
   vertex 4.1538600921630859 -1.353320044472639e-06 52.084800720214844
  endloop
 endfacet
 facet normal -0 -1 -0
  outer loop
   vertex 4.4524497985839844 -1.353320044472639e-06 51.569099426269531
   vertex 4.4238801002502441 -1.353320044472639e-06 51.638900756835938
   vertex 4.1538600921630859 -1.353320044472639e-06 52.084800720214844
  endloop
 endfacet
 facet normal 0 -1 0
  outer loop
   vertex 4.1538600921630859 -1.353320044472639e-06 52.084800720214844
   vertex 4.4238801002502441 -1.353320044472639e-06 51.638900756835938
   vertex 4.2116799354553223 -1.353320044472639e-06 52.00830078125
  endloop
 endfacet
 facet normal -0 -1 -0
  outer loop
   vertex 4.3536801338195801 -1.353320044472639e-06 51.782901763916016
   vertex 4.3114700317382812 -1.353320044472639e-06 51.856998443603516
   vertex 4.2642002105712891 -1.353320044472639e-06 51.932201385498047
  endloop
 endfacet
 facet normal 0 -1 0
  outer loop
   vertex 4.2116799354553223 -1.353320044472639e-06 52.00830078125
   vertex 4.4238801002502441 -1.353320044472639e-06 51.638900756835938
   vertex 4.2642002105712891 -1.353320044472639e-06 51.932201385498047
  endloop
 endfacet
 facet normal -0 -1 -0
  outer loop
   vertex 4.4238801002502441 -1.353320044472639e-06 51.638900756835938
   vertex 4.3910598754882812 -1.353320044472639e-06 51.710201263427734
   vertex 4.2642002105712891 -1.353320044472639e-06 51.932201385498047
  endloop
 endfacet
 facet normal 0 -1 0
  outer loop
   vertex 4.2642002105712891 -1.353320044472639e-06 51.932201385498047
   vertex 4.3910598754882812 -1.353320044472639e-06 51.710201263427734
   vertex 4.3536801338195801 -1.353320044472639e-06 51.782901763916016
  endloop
 endfacet
endsolid
